<?xml version="1.0" standalone="no"?>
<!DOCTYPE svg PUBLIC "-//W3C//DTD SVG 20010904//EN"
 "http://www.w3.org/TR/2001/REC-SVG-20010904/DTD/svg10.dtd">
<svg version="1.0" xmlns="http://www.w3.org/2000/svg"
 width="260.000000pt" height="260.000000pt" viewBox="0 0 260.000000 260.000000"
 preserveAspectRatio="xMidYMid meet">
<metadata>
Created by potrace 1.11, written by Peter Selinger 2001-2013
</metadata>
<g transform="translate(0.000000,260.000000) scale(0.100000,-0.100000)"
fill="#000000" stroke="none">
<path d="M1270 2221 l0 -111 -34 0 c-27 0 -56 17 -144 85 -61 47 -116 85 -121
85 -6 0 -11 -8 -11 -18 0 -10 37 -46 91 -87 l92 -70 -74 -12 c-193 -33 -336
-100 -454 -215 -79 -77 -80 -78 -132 -78 -46 0 -53 -3 -53 -20 0 -17 7 -20 41
-20 22 0 39 -3 37 -7 -34 -67 -64 -142 -79 -200 -19 -76 -39 -262 -39 -371 0
-51 -3 -64 -18 -69 -9 -3 -55 -23 -100 -45 -64 -30 -101 -57 -157 -111 -88
-88 -115 -137 -114 -209 1 -43 2 -48 9 -27 35 116 155 250 280 313 40 20 78
36 84 36 8 0 10 -54 8 -187 -3 -170 -5 -190 -23 -209 -10 -11 -19 -24 -19 -28
0 -4 23 -41 51 -82 97 -144 108 -192 57 -249 -67 -77 -171 -104 -247 -66 -52
27 -133 118 -170 192 l-31 62 0 -47 c0 -38 7 -59 35 -101 76 -114 170 -172
264 -163 l49 5 7 -99 c6 -86 9 -98 25 -98 14 0 20 9 22 38 l3 37 249 3 c231 2
256 1 335 -20 77 -20 111 -22 321 -23 218 0 240 2 305 23 67 22 82 22 335 20
l265 -3 3 -37 c2 -29 8 -38 21 -38 15 0 19 11 25 61 3 34 6 79 6 100 l0 37 59
-5 c70 -7 115 7 173 51 62 47 100 106 96 147 l-3 32 -33 -51 c-102 -159 -242
-186 -365 -70 -63 60 -51 122 54 272 40 56 47 72 38 88 -6 10 -17 22 -25 25
-11 4 -14 39 -14 194 0 104 2 189 5 189 16 0 98 -38 145 -68 74 -46 115 -86
161 -156 l39 -59 0 40 c0 86 -132 203 -312 277 l-38 15 0 88 c0 128 -17 309
-35 378 -9 32 -28 85 -43 117 l-28 57 40 3 c29 2 41 8 41 18 0 11 -15 16 -55
20 -51 5 -59 9 -104 58 -116 125 -285 203 -512 237 -53 8 -98 16 -100 18 -2 2
23 26 56 53 33 27 60 54 60 61 0 31 -27 19 -104 -46 -70 -59 -89 -71 -119 -71
l-36 0 -3 107 c-3 93 -5 108 -20 111 -16 3 -18 -7 -18 -107z m-288 -201 c-40
-25 -66 -81 -57 -126 3 -20 20 -45 41 -63 l35 -31 -200 0 c-230 0 -228 -1
-128 80 75 61 160 106 252 136 87 29 99 29 57 4z m608 -8 c79 -26 123 -66 118
-108 -7 -58 -109 -91 -318 -100 -241 -11 -396 21 -419 88 -22 62 26 107 141
133 100 23 393 15 478 -13z m153 -1 c97 -34 199 -93 262 -153 l60 -57 -200 -1
c-197 0 -200 0 -172 18 41 28 56 53 57 96 0 31 -7 45 -39 77 -21 22 -35 39
-31 39 4 0 32 -9 63 -19z m386 -313 c64 -132 76 -233 87 -766 5 -258 4 -335
-6 -347 -10 -13 -55 -15 -279 -15 -237 0 -271 2 -316 19 -150 57 -570 52 -682
-8 -15 -7 -99 -11 -256 -11 -216 0 -235 1 -251 19 -15 17 -16 42 -6 327 19
550 35 658 117 802 l25 42 768 0 769 0 30 -62z m-725 -1168 c175 -20 211 -55
211 -205 0 -102 -18 -154 -61 -174 -14 -6 -68 -16 -121 -22 -105 -11 -300 1
-370 23 -33 11 -40 19 -55 63 -22 64 -22 156 0 220 14 40 24 53 55 68 64 32
202 43 341 27z m-600 -141 c54 -42 23 -123 -46 -121 -63 2 -89 72 -43 117 30
30 54 31 89 4z m1101 -4 c53 -53 12 -126 -65 -115 -60 8 -68 112 -10 133 31
11 52 6 75 -18z m239 -90 c16 -24 16 -25 -6 -26 -59 -3 -88 19 -88 67 0 24 8
38 27 54 l28 21 11 -46 c7 -25 19 -57 28 -70z m-1592 88 c36 -32 11 -109 -37
-114 -45 -4 -49 0 -26 25 13 13 25 42 28 65 6 46 9 48 35 24z"/>
<path d="M675 1638 c-101 -56 -121 -170 -41 -247 99 -96 256 -28 256 111 0 83
-66 148 -150 148 -25 0 -54 -6 -65 -12z"/>
<path d="M1790 1628 c-49 -34 -72 -83 -67 -141 13 -151 210 -193 284 -61 29
50 29 90 0 144 -41 78 -146 106 -217 58z"/>
<path d="M1156 1334 c-176 -56 -230 -216 -111 -330 62 -60 125 -79 260 -79
128 1 201 23 267 83 55 50 71 85 66 143 -7 74 -44 121 -125 161 -64 31 -74 33
-188 35 -86 2 -134 -2 -169 -13z m314 -48 c81 -30 141 -111 126 -171 -25 -100
-205 -173 -361 -147 -134 22 -205 81 -205 171 0 113 109 175 295 167 59 -2
119 -11 145 -20z"/>
<path d="M1155 1149 c-15 -24 16 -30 146 -27 111 3 134 6 134 18 0 12 -23 15
-137 18 -92 2 -139 -1 -143 -9z"/>
</g>
</svg>
